<?xml version="1.0" encoding="utf-8"?>
<!-- Generator: Adobe Illustrator 16.0.0, SVG Export Plug-In . SVG Version: 6.00 Build 0)  -->
<!DOCTYPE svg PUBLIC "-//W3C//DTD SVG 1.1//EN" "http://www.w3.org/Graphics/SVG/1.1/DTD/svg11.dtd">
<svg version="1.1" id="Layer_1" xmlns="http://www.w3.org/2000/svg" xmlns:xlink="http://www.w3.org/1999/xlink" x="0px" y="0px"
	 width="367.745px" height="60.699px" viewBox="0 0 367.745 60.699" enable-background="new 0 0 367.745 60.699"
	 xml:space="preserve">
<g>
	<path fill="#231F20" d="M53.121,42.179"/>
	<path d="M33.217,59.206l-3.032-10.665H13.076L9.971,59.206H0L17.812,1.785h7.493l17.884,57.421H33.217z M21.8,17.97l-6.273,22.213
		h12.491L21.8,17.97z"/>
	<path d="M271.415,59.209l-3.037-10.664h-17.105l-3.104,10.664h-9.972l17.811-57.422h7.495l17.884,57.422H271.415z M259.997,16.801
		l-6.274,23.385h12.489L259.997,16.801z"/>
	<path d="M51.797,59.06V1.641H84.05v8.964H61.355v15.2h19.319v9.256H61.355v15.181H84.05v8.818H51.797z"/>
	<path d="M122.291,59.06l-10.144-22.951h-6.876V59.06h-9.558V1.641h19.188c4.859,0,8.722,1.678,11.582,5.032
		c2.869,3.353,4.3,7.524,4.3,12.515c0,3.757-0.849,6.937-2.542,9.541c-1.697,2.603-4.393,4.941-6.955,6.014l12.076,24.317H122.291z
		 M114.281,10.762h-9.01v15.924h9.01c2.061,0,3.734-0.732,5.021-2.2c1.281-1.469,1.925-3.39,1.925-5.761
		c0-2.427-0.631-4.364-1.893-5.804C118.072,11.483,116.391,10.762,114.281,10.762z"/>
	<path d="M220.575,59.062L201.18,23.791v35.271l-9.556-0.002V1.641l8.528,0.002l19.39,35.112V1.643h9.558v57.42H220.575z"/>
	<path d="M305.406,59.465c-5.136,0-9.423-1.854-12.862-5.556c-3.438-3.706-5.156-8.565-5.156-14.579V1.643h9.559v37.288
		c0,3.272,0.758,6.288,2.27,8.168c1.515,1.881,3.578,2.818,6.19,2.818s4.687-0.927,6.222-2.777c1.537-1.855,2.305-4.883,2.305-8.209
		V1.643h9.492V39.33c0,6.014-1.709,10.873-5.124,14.579C314.885,57.611,310.587,59.465,305.406,59.465z"/>
	<path d="M354.957,10.898v48.164h-9.561V10.898h-12.79V1.643h35.139v9.256H354.957z"/>
	<path d="M161.72,0h-2.182c-9.483,0-17.17,7.687-17.17,17.166l0.794,26.364c0,9.481,7.355,17.169,16.423,17.169h2.089
		c9.07,0,16.422-7.688,16.422-17.169l0.795-26.364C178.891,7.687,171.203,0,161.72,0z M160.622,7.1c4.424,0,8.004,3.579,8.004,7.994
		c0,4.428-3.58,7.998-8.004,7.998c-4.413,0-7.992-3.57-7.992-7.998C152.63,10.679,156.209,7.1,160.622,7.1z M162.08,24.744
		l-0.337,2.271h-2.231l-0.337-2.271H162.08z M173.676,41.528c0,6.771-5.193,9.453-11.604,9.453h-2.888
		c-6.405,0-11.603-2.683-11.603-9.453v-6.4c4.089-0.803,8.464-1.263,13.048-1.263c4.587,0,8.957,0.46,13.046,1.269V41.528z"/>
</g>
</svg>
